<svg xmlns="http://www.w3.org/2000/svg" width="74" height="142" viewBox="0 0 74 142" fill="none"><path d="M2.62626 0.526949C-0.00850427 2.16328 -0.452254 4.02148 0.379777 9.70703C1.8497 19.4141 7.45204 27.7344 17.3255 34.8898L19.4333 36.4152L24.3423 34.0301C27.0325 32.7266 29.5286 31.5894 29.8892 31.4785C30.7489 31.2289 30.527 31.007 28.1696 29.7035C19.5997 25.0164 13.3872 18.3602 11.2239 11.5652C10.8356 10.3727 10.3642 7.90429 10.1423 6.07382C9.80946 3.21718 9.64306 2.63476 9.00517 1.775C8.58915 1.22031 7.81259 0.610152 7.31337 0.388277C5.98212 -0.16641 3.6247 -0.110942 2.62626 0.526949Z" fill="url(#paint0_linear_6_7)"></path><path d="M66.3876 0.388283C65.9161 0.610158 65.1673 1.22031 64.7513 1.775C64.0856 2.6625 63.9192 3.24492 63.6141 6.0461C62.9485 11.7594 61.1735 15.9473 57.5681 20.2461C53.0751 25.6266 44.5329 31.0348 35.6302 34.2242C30.6657 36.027 27.8368 37.2195 24.1204 39.1609C15.0513 43.8758 8.08993 49.8941 4.17938 56.384C2.70946 58.7969 1.23954 62.4301 0.657119 65.0371C-0.0639749 68.1156 -0.0362405 73.9398 0.657119 76.9629C1.9329 82.5375 4.5954 87.2246 9.1161 91.9117C15.7169 98.7066 23.7599 103.532 35.6302 107.776C47.6946 112.075 57.263 119.313 61.1735 127.107C62.4216 129.547 63.3923 133.153 63.6974 136.509C63.9192 138.783 64.0856 139.338 64.7513 140.197C65.6942 141.445 66.9145 142 68.7727 142C70.4645 142 71.4352 141.529 72.6001 140.225C73.7095 138.949 73.9313 137.368 73.5153 133.624C72.2673 122.142 65.0009 112.075 52.5481 104.559C49.22 102.562 42.8688 99.5664 38.986 98.1797C23.122 92.5496 13.0266 84.3402 10.6692 75.1602C10.0591 72.8859 10.0868 68.9199 10.6692 66.7012C13.1376 57.4934 23.3438 49.284 39.513 43.6262C42.8966 42.4336 49.3587 39.3828 52.5481 37.4414C62.8931 31.2012 69.8544 22.9363 72.4891 13.784C73.3489 10.8441 73.9313 5.90742 73.654 4.07695C73.4321 2.63477 72.3227 1.10938 70.9638 0.388283C69.9931 -0.110936 67.5247 -0.110936 66.3876 0.388283Z" fill="url(#paint1_linear_6_7)"></path><path d="M14.7185 5.74102C14.7185 6.32344 14.8849 7.48828 15.0513 8.32031L15.3841 9.8457H36.8782H58.3724L58.7052 8.32031C58.8716 7.48828 59.038 6.32344 59.038 5.74102L59.0657 4.71484H36.8782H14.6907L14.7185 5.74102Z" fill="url(#paint2_linear_6_7)"></path><path d="M19.6829 17.1676C19.6829 17.5004 21.9571 19.8301 23.5935 21.1613L24.8692 22.1875H36.9337H48.9704L50.4958 20.9395C52.0767 19.6082 54.0735 17.4727 54.0735 17.1121C54.0735 17.0012 46.3356 16.918 36.8782 16.918C26.4224 16.918 19.6829 17.0289 19.6829 17.1676Z" fill="url(#paint3_linear_6_7)"></path><path d="M50.3294 43.7926C48.3602 44.8187 45.9196 46.0113 44.9212 46.4273L43.1462 47.1762L45.7532 48.5906C56.1259 54.1375 62.4216 61.3207 63.5309 68.8922C64.8345 77.5453 58.1227 86.7809 45.7532 93.4094L43.1462 94.8238L44.9212 95.5727C45.9196 95.9887 48.4157 97.209 50.4681 98.2629L54.2122 100.177L55.0997 99.7051C56.7638 98.7898 61.1458 95.3508 63.3368 93.243C70.5477 86.1707 73.6263 79.5699 73.6263 71C73.6263 62.3191 70.5755 55.8293 63.2536 48.7293C60.4802 46.0391 54.9333 41.8512 54.2399 41.9066C54.0735 41.9066 52.3263 42.7664 50.3294 43.7926Z" fill="url(#paint4_linear_6_7)"></path><path d="M21.3192 58.7969L18.7122 61.2652L36.795 61.293C53.1028 61.293 54.8778 61.2375 54.7114 60.8492C54.6282 60.6273 53.4911 59.4902 52.1599 58.3531L49.7747 56.3008H36.8505H23.8985L21.3192 58.7969Z" fill="url(#paint5_linear_6_7)"></path><path d="M14.8571 69.1141C14.7739 69.4746 14.6907 70.3066 14.6907 71C14.6907 71.6934 14.7739 72.5254 14.8571 72.8582L15.0235 73.4961H36.8782H58.7329L58.8993 72.8582C59.0935 72.0816 59.0935 69.9184 58.8993 69.1141L58.7329 68.5039H36.8782H15.0235L14.8571 69.1141Z" fill="url(#paint6_linear_6_7)"></path><path d="M21.3192 83.2031L23.8985 85.6992H36.795H49.6915L51.8825 83.8688C53.0751 82.8426 54.2399 81.7332 54.4895 81.3727L54.9056 80.707H36.8228L18.7122 80.7348L21.3192 83.2031Z" fill="url(#paint7_linear_6_7)"></path><path d="M16.6876 107.609C6.62001 115.153 1.35047 123.501 0.241099 133.624C-0.174916 137.368 0.0469587 138.949 1.15633 140.225C2.32118 141.556 3.29188 142 4.98368 142C6.75868 142 8.11766 141.39 9.06063 140.17C9.64305 139.393 9.80946 138.7 10.1423 135.982C10.586 132.238 11.2794 129.63 12.6106 127.023C15.2731 121.726 20.6536 116.595 27.6704 112.574C29.0849 111.77 30.3052 111.021 30.3606 110.91C30.4438 110.799 29.7782 110.438 28.8907 110.078C28.0309 109.745 25.5903 108.608 23.5102 107.554C21.4024 106.528 19.5997 105.668 19.461 105.668C19.3501 105.668 18.102 106.528 16.6876 107.609Z" fill="url(#paint8_linear_6_7)"></path><path d="M23.122 121.227C21.4302 122.669 19.6829 124.527 19.6829 124.86C19.6829 124.999 27.4208 125.082 36.8782 125.082C46.3356 125.082 54.0735 124.999 54.0735 124.86C54.0735 124.527 52.0767 122.392 50.4958 121.061L48.9704 119.813H36.8782H24.7583L23.122 121.227Z" fill="url(#paint9_linear_6_7)"></path><path d="M15.4395 132.21C15.2177 132.543 14.6907 135.649 14.6907 136.509V137.285H36.8782H59.0657L59.038 136.231C59.038 135.677 58.8716 134.512 58.7052 133.68L58.3724 132.154L36.9614 132.071C25.202 132.043 15.495 132.099 15.4395 132.21Z" fill="url(#paint10_linear_6_7)"></path><defs><linearGradient id="paint0_linear_6_7" x1="-23.8766" y1="37.5691" x2="21.2156" y2="-17.928" gradientUnits="userSpaceOnUse"><stop stop-color="#05F28C"></stop><stop offset="1" stop-color="#44DFFF"></stop></linearGradient><linearGradient id="paint1_linear_6_7" x1="-57.7737" y1="146.5" x2="115.643" y2="13.7862" gradientUnits="userSpaceOnUse"><stop stop-color="#05F28C"></stop><stop offset="1" stop-color="#44DFFF"></stop></linearGradient><linearGradient id="paint2_linear_6_7" x1="-20.22" y1="10.0083" x2="-19.2093" y2="-2.89692" gradientUnits="userSpaceOnUse"><stop stop-color="#05F28C"></stop><stop offset="1" stop-color="#44DFFF"></stop></linearGradient><linearGradient id="paint3_linear_6_7" x1="-7.37291" y1="22.3545" x2="-6.00369" y2="9.16129" gradientUnits="userSpaceOnUse"><stop stop-color="#05F28C"></stop><stop offset="1" stop-color="#44DFFF"></stop></linearGradient><linearGradient id="paint4_linear_6_7" x1="19.1669" y1="102.023" x2="90.5029" y2="46.9315" gradientUnits="userSpaceOnUse"><stop stop-color="#05F28C"></stop><stop offset="1" stop-color="#44DFFF"></stop></linearGradient><linearGradient id="paint5_linear_6_7" x1="-9.61689" y1="61.4512" x2="-8.44097" y2="48.9281" gradientUnits="userSpaceOnUse"><stop stop-color="#05F28C"></stop><stop offset="1" stop-color="#44DFFF"></stop></linearGradient><linearGradient id="paint6_linear_6_7" x1="-20.2036" y1="73.6543" x2="-19.2461" y2="61.0938" gradientUnits="userSpaceOnUse"><stop stop-color="#05F28C"></stop><stop offset="1" stop-color="#44DFFF"></stop></linearGradient><linearGradient id="paint7_linear_6_7" x1="-9.76186" y1="85.8574" x2="-8.59182" y2="73.3333" gradientUnits="userSpaceOnUse"><stop stop-color="#05F28C"></stop><stop offset="1" stop-color="#44DFFF"></stop></linearGradient><linearGradient id="paint8_linear_6_7" x1="-23.8095" y1="143.151" x2="21.178" y2="87.7179" gradientUnits="userSpaceOnUse"><stop stop-color="#05F28C"></stop><stop offset="1" stop-color="#44DFFF"></stop></linearGradient><linearGradient id="paint9_linear_6_7" x1="-7.37291" y1="125.249" x2="-6.00369" y2="112.056" gradientUnits="userSpaceOnUse"><stop stop-color="#05F28C"></stop><stop offset="1" stop-color="#44DFFF"></stop></linearGradient><linearGradient id="paint10_linear_6_7" x1="-20.22" y1="137.451" x2="-19.1737" y2="124.321" gradientUnits="userSpaceOnUse"><stop stop-color="#05F28C"></stop><stop offset="1" stop-color="#44DFFF"></stop></linearGradient></defs></svg>