<svg width="150" height="150" viewBox="0 0 150 150" fill="none" xmlns="http://www.w3.org/2000/svg">
<g clip-path="url(#clip0_1_15)">
<path d="M74.9171 129.355C86.3188 129.355 95.7969 120.21 95.7969 108.565C95.7969 105.919 95.273 102.716 94.6097 98.6644C91.9301 82.2979 86.9356 51.8329 111.848 10.3264C114.249 6.32101 109.195 2.01054 105.62 4.99471C105.036 5.48544 104.353 6.03586 103.59 6.65258C71.415 32.7342 54.2031 64.4791 54.2031 107.677C54.2031 119.123 62.9053 129.355 74.9238 129.355H74.9171Z" fill="url(#paint0_linear_1_15)"/>
<path d="M143.373 120.243C138.631 118.36 133.066 118.93 128.854 121.742C126.467 123.334 123.376 123.334 120.988 121.742C115.795 118.28 109.082 118.28 103.895 121.742C102.801 122.472 101.567 122.863 100.314 122.922C95.2862 131.722 85.7881 137.671 74.9237 137.671C64.0593 137.671 54.8796 131.669 49.9051 122.929C48.5852 122.903 47.2653 122.505 46.1112 121.742C40.9177 118.28 34.2054 118.28 29.0186 121.742C26.6309 123.334 23.54 123.334 21.1522 121.742C16.9338 118.93 11.369 118.36 6.63319 120.243C5.04134 120.873 4 122.405 4 124.109V141.842C4 144.137 5.8638 146 8.15872 146H141.835C144.13 146 145.993 144.137 145.993 141.842V124.109C145.993 122.405 144.952 120.873 143.367 120.243H143.373Z" fill="url(#paint1_linear_1_15)"/>
<path d="M141.835 87.7689H101.428C101.846 91.3698 102.37 94.5596 102.821 97.3183C103.551 101.741 104.121 105.236 104.121 108.565C104.121 109.878 104.035 111.171 103.862 112.438C110.561 109.832 118.375 110.329 124.921 114.388C131.388 110.389 139.314 109.845 146 112.352V91.9335C146 89.639 144.136 87.7756 141.841 87.7756L141.835 87.7689Z" fill="url(#paint2_linear_1_15)"/>
<path d="M25.0788 114.381C31.5722 110.356 39.4519 109.785 46.2505 112.484C46.005 110.913 45.879 109.308 45.879 107.677C45.879 100.866 46.3102 94.228 47.1658 87.7689H8.15872C5.8638 87.7689 4 89.6324 4 91.9269V112.345C10.6792 109.839 18.6053 110.382 25.0788 114.381Z" fill="url(#paint3_linear_1_15)"/>
</g>
<defs>
<linearGradient id="paint0_linear_1_15" x1="32.4146" y1="182.546" x2="96.0695" y2="51.6776" gradientUnits="userSpaceOnUse">
<stop offset="0.01" stop-color="#007FA1"/>
<stop offset="1" stop-color="#1BEACD"/>
</linearGradient>
<linearGradient id="paint1_linear_1_15" x1="47.3449" y1="189.808" x2="111" y2="58.9391" gradientUnits="userSpaceOnUse">
<stop offset="0.01" stop-color="#007FA1"/>
<stop offset="1" stop-color="#1BEACD"/>
</linearGradient>
<linearGradient id="paint2_linear_1_15" x1="73.7829" y1="202.666" x2="137.438" y2="71.7976" gradientUnits="userSpaceOnUse">
<stop offset="0.01" stop-color="#007FA1"/>
<stop offset="1" stop-color="#1BEACD"/>
</linearGradient>
<linearGradient id="paint3_linear_1_15" x1="-5.27918" y1="164.217" x2="58.3757" y2="33.3416" gradientUnits="userSpaceOnUse">
<stop offset="0.01" stop-color="#007FA1"/>
<stop offset="1" stop-color="#1BEACD"/>
</linearGradient>
<clipPath id="clip0_1_15">
<rect width="142" height="142" fill="white" transform="translate(4 4)"/>
</clipPath>
</defs>
</svg>
