<svg width="150" height="150" viewBox="0 0 150 150" fill="none" xmlns="http://www.w3.org/2000/svg">
<g clip-path="url(#clip0_1_8)">
<path d="M74.9969 6C64.8466 6 55.1928 8.18718 46.5069 12.1279C45.319 12.6684 44.8162 14.0888 45.4007 15.2515L49.5111 23.4849C50.0642 24.5911 51.3904 25.0624 52.5154 24.5534C59.3786 21.4863 66.9772 19.8019 74.9969 19.8019C105.511 19.8019 130.192 44.4831 130.192 74.9969C130.192 86.4733 126.66 97.0824 120.67 105.919L113.417 98.6662C112.921 98.1697 112.229 97.9246 111.532 98.0063C110.369 98.1383 109.495 99.125 109.495 100.3V125.597C109.495 126.867 110.513 127.904 111.789 127.904H137.086C139.154 127.923 140.191 125.415 138.714 123.963L130.563 115.812C138.972 104.379 144 90.2757 144 75.0031C144 36.9223 113.078 6 74.9969 6ZM12.8884 22.0959C10.8457 22.0959 9.815 24.5659 11.2606 26.0178L19.4185 34.1757C11.0029 45.6081 6 59.7243 6 74.9969C6 113.078 36.9223 143.994 74.9969 143.994C85.1471 143.994 94.8009 141.788 103.487 137.847C104.675 137.306 105.171 135.886 104.587 134.723L100.464 126.49C99.9106 125.396 98.5971 124.925 97.4783 125.422C90.6151 128.489 83.0165 130.192 74.9969 130.192C44.4831 130.192 19.8019 105.511 19.8019 74.9969C19.8019 63.5204 23.3152 52.905 29.2985 44.0683L36.5766 51.3275C38.0284 52.7668 40.4984 51.7423 40.4984 49.6997V24.4025C40.4984 23.1267 39.4677 22.0896 38.1918 22.0959H12.8884ZM79.4781 35.8978C78.7302 35.9355 78.0388 36.3378 77.6428 36.9725L50.0579 80.6722C49.09 82.1995 50.1836 84.1918 51.9874 84.2044H70.2077L68.1022 111.626C67.9325 114.002 71.0373 115.039 72.332 113.034L99.9421 69.3278C100.916 67.7942 99.8038 65.7893 97.9874 65.7956H79.7735L81.8915 38.3741C81.9984 36.9914 80.8671 35.8224 79.4843 35.8915L79.4781 35.8978Z" fill="url(#paint0_linear_1_8)"/>
</g>
<defs>
<linearGradient id="paint0_linear_1_8" x1="99.5587" y1="-14.5771" x2="61.5721" y2="123.97" gradientUnits="userSpaceOnUse">
<stop offset="0.01" stop-color="#007FA1"/>
<stop offset="1" stop-color="#1BEACD"/>
</linearGradient>
<clipPath id="clip0_1_8">
<rect width="138" height="138" fill="white" transform="translate(6 6)"/>
</clipPath>
</defs>
</svg>
