<svg width="150" height="150" viewBox="0 0 150 150" fill="none" xmlns="http://www.w3.org/2000/svg">
<g clip-path="url(#clip0_1_7)">
<path d="M42.9141 35.9911L31.0681 24.145C29.4289 22.5058 26.7781 22.5058 25.145 24.145C23.5058 25.7842 23.5058 28.435 25.145 30.0681L36.9911 41.9141C38.6303 43.5533 41.281 43.5533 42.9141 41.9141C44.5533 40.2749 44.5533 37.6242 42.9141 35.9911Z" fill="url(#paint0_linear_1_7)"/>
<path d="M24.9439 70.3106H8.19244C5.87685 70.3106 4 72.1814 4 74.503C4 76.8247 5.87075 78.6955 8.19244 78.6955H24.95C27.2656 78.6955 29.1425 76.8247 29.1425 74.503C29.1425 72.1814 27.2717 70.3106 24.95 70.3106H24.9439Z" fill="url(#paint1_linear_1_7)"/>
<path d="M142.808 70.3106H126.05C123.734 70.3106 121.864 72.1814 121.864 74.503C121.864 76.8247 123.734 78.6955 126.05 78.6955H142.808C145.123 78.6955 146.994 76.8247 146.994 74.503C146.994 72.1814 145.123 70.3106 142.808 70.3106Z" fill="url(#paint2_linear_1_7)"/>
<path d="M125.855 24.1389C124.216 22.4997 121.565 22.4997 119.932 24.1389L108.086 35.985C106.447 37.6242 106.447 40.2749 108.086 41.908C109.725 43.5472 112.376 43.5472 114.009 41.908L125.855 30.062C127.494 28.4228 127.494 25.772 125.855 24.1389Z" fill="url(#paint3_linear_1_7)"/>
<path d="M75.497 3C73.1814 3 71.3106 4.87075 71.3106 7.19244V23.95C71.3106 26.2656 73.1814 28.1425 75.497 28.1425C77.8125 28.1425 79.6894 26.2717 79.6894 23.95V7.19244C79.6894 4.87685 77.8186 3 75.497 3Z" fill="url(#paint4_linear_1_7)"/>
<path d="M98.9271 44.9549C89.8475 37.7522 77.9954 35.1624 66.4905 37.8497C53.0784 40.9757 42.2804 51.6153 38.9776 64.9482C35.6688 78.3299 39.459 91.9675 49.1053 101.425C52.5665 104.819 54.553 110.23 54.553 115.775V116.677C54.553 123.606 60.1897 129.249 67.1182 129.249H71.3106V95.0326C61.7618 93.0887 54.553 84.6246 54.553 74.5091C54.553 72.1936 56.4238 70.3167 58.7455 70.3167C61.0672 70.3167 62.9318 72.1875 62.9318 74.5091C62.9318 81.4376 68.5685 87.0743 75.497 87.0743C82.4254 87.0743 88.0621 81.4376 88.0621 74.5091C88.0621 72.1936 89.9328 70.3167 92.2545 70.3167C94.5762 70.3167 96.4409 72.1875 96.4409 74.5091C96.4409 84.6246 89.2321 93.0887 79.6833 95.0326V129.249H83.8696C90.7981 129.249 96.4348 123.612 96.4348 116.677V115.763C96.4348 110.303 98.531 104.795 102.181 101.138C109.286 94.0211 113.192 84.5637 113.192 74.5091C113.192 62.9373 107.988 52.1698 98.9149 44.961L98.9271 44.9549Z" fill="url(#paint5_linear_1_7)"/>
<path d="M59.5133 137.621C61.25 142.49 65.8568 146 71.3106 146H79.6894C85.1432 146 89.75 142.49 91.4867 137.621H59.5133Z" fill="url(#paint6_linear_1_7)"/>
</g>
<defs>
<linearGradient id="paint0_linear_1_7" x1="166.829" y1="99.4261" x2="36.8327" y2="34.4311" gradientUnits="userSpaceOnUse">
<stop offset="0.01" stop-color="#007FA1"/>
<stop offset="1" stop-color="#1BEACD"/>
</linearGradient>
<linearGradient id="paint1_linear_1_7" x1="146.75" y1="139.589" x2="16.7479" y2="74.5884" gradientUnits="userSpaceOnUse">
<stop offset="0.01" stop-color="#007FA1"/>
<stop offset="1" stop-color="#1BEACD"/>
</linearGradient>
<linearGradient id="paint2_linear_1_7" x1="170.32" y1="92.4428" x2="40.3243" y2="27.4478" gradientUnits="userSpaceOnUse">
<stop offset="0.01" stop-color="#007FA1"/>
<stop offset="1" stop-color="#1BEACD"/>
</linearGradient>
<linearGradient id="paint3_linear_1_7" x1="183.422" y1="66.2522" x2="53.4196" y2="1.2511" gradientUnits="userSpaceOnUse">
<stop offset="0.01" stop-color="#007FA1"/>
<stop offset="1" stop-color="#1BEACD"/>
</linearGradient>
<linearGradient id="paint4_linear_1_7" x1="182.106" y1="68.8725" x2="52.1095" y2="3.87139" gradientUnits="userSpaceOnUse">
<stop offset="0.01" stop-color="#007FA1"/>
<stop offset="1" stop-color="#1BEACD"/>
</linearGradient>
<linearGradient id="paint5_linear_1_7" x1="154.885" y1="123.319" x2="24.883" y2="58.3183" gradientUnits="userSpaceOnUse">
<stop offset="0.01" stop-color="#007FA1"/>
<stop offset="1" stop-color="#1BEACD"/>
</linearGradient>
<linearGradient id="paint6_linear_1_7" x1="132.497" y1="168.096" x2="2.50096" y2="103.094" gradientUnits="userSpaceOnUse">
<stop offset="0.01" stop-color="#007FA1"/>
<stop offset="1" stop-color="#1BEACD"/>
</linearGradient>
<clipPath id="clip0_1_7">
<rect width="143" height="143" fill="white" transform="translate(4 3)"/>
</clipPath>
</defs>
</svg>
