<svg width="150" height="150" viewBox="0 0 150 150" fill="none" xmlns="http://www.w3.org/2000/svg">
<g clip-path="url(#clip0_1_2)">
<path fill-rule="evenodd" clip-rule="evenodd" d="M116.623 64.8317V35.0938C108.996 32.127 102.969 26.0752 100.004 18.4253H48.9961C46.0311 26.0752 40.0041 32.12 32.3768 35.0938V64.8317C33.4506 92.5477 49.6404 117.429 74.5035 129.574C99.3666 117.429 115.549 92.5477 116.623 64.8317ZM121.14 64.9151C120.004 95.1185 101.951 122.091 74.5035 134.577C47.0564 122.091 28.9962 95.1254 27.86 64.9151V31.7865C36.6373 29.5701 43.4887 22.6984 45.6986 13.8952H103.301C105.511 22.6984 112.363 29.5701 121.14 31.7865V64.9151ZM127.07 20.6209C130.347 20.6209 133 23.282 133 26.5685V65.0193C133 65.0888 133 65.1583 133 65.2278C131.753 101.038 109.779 132.826 76.7757 146.548C75.3209 147.153 73.686 147.153 72.2312 146.548C39.2213 132.826 17.247 101.038 16 65.2208C16 65.1513 16 65.0818 16 65.0124V26.5615C16 23.2751 18.6533 20.614 21.93 20.614C28.9061 20.607 34.559 14.9374 34.5659 7.94063C34.5659 4.66112 37.2192 2 40.489 2H108.497C111.774 2 114.427 4.66112 114.427 7.94063C114.434 14.9374 120.087 20.607 127.063 20.614L127.07 20.6209ZM80.4335 42.3685V60.7393H98.75C102.027 60.7393 104.68 63.4004 104.68 66.6869C104.68 69.9733 102.027 72.6344 98.75 72.6344H80.4335V91.0052C80.4335 94.2917 77.7802 96.9528 74.5035 96.9528C71.2267 96.9528 68.5735 94.2917 68.5735 91.0052V72.6344H50.2569C46.9802 72.6831 44.2853 70.0636 44.2368 66.7772C44.1883 63.4907 46.8 60.7879 50.0768 60.7393C50.1391 60.7393 50.2015 60.7393 50.2569 60.7393H68.5735V42.3685C68.5735 39.082 71.2267 36.4209 74.5035 36.4209C77.7802 36.4209 80.4335 39.082 80.4335 42.3685Z" fill="url(#paint0_linear_1_2)"/>
</g>
<defs>
<linearGradient id="paint0_linear_1_2" x1="139.533" y1="145.235" x2="43.8839" y2="18.6277" gradientUnits="userSpaceOnUse">
<stop offset="0.01" stop-color="#007FA1"/>
<stop offset="1" stop-color="#1BEACD"/>
</linearGradient>
<clipPath id="clip0_1_2">
<rect width="117" height="145" fill="white" transform="translate(16 2)"/>
</clipPath>
</defs>
</svg>
