<svg width="150" height="150" viewBox="0 0 150 150" fill="none" xmlns="http://www.w3.org/2000/svg">
<g clip-path="url(#clip0_1_4)">
<path d="M88.1986 68.9963C86.6395 70.6162 85.4381 72.3576 84.5404 73.9775C80.9429 74.8751 76.3803 76.6772 72.9583 80.9969H33.0014C16.4382 80.9969 3 67.5587 3 51.0023C3 34.4458 16.4382 21.0008 33.0014 21.0008H51.0023C54.3027 21.0008 57.0025 18.3011 57.0025 15.0006V9.00028C57.0025 5.69979 59.7023 3 63.0028 3C66.3033 3 69.0031 5.69979 69.0031 9.00028V15.0006C69.0031 24.902 60.9037 33.0014 51.0023 33.0014H33.0014C23.0999 33.0014 15.0006 41.1008 15.0006 51.0023C15.0006 60.9037 23.0999 69.0031 33.0014 69.0031H88.1986V68.9963Z" fill="url(#paint0_linear_1_4)"/>
<path d="M68.4564 92.9975C68.3956 94.4351 68.4564 95.758 68.5779 96.9594C66.8973 98.937 65.0411 101.576 63.9612 104.998H33.0014C29.7009 104.998 27.0011 102.298 27.0011 98.9977C27.0011 95.6973 29.7009 92.9975 33.0014 92.9975H68.4631H68.4564Z" fill="url(#paint1_linear_1_4)"/>
<path d="M120.535 62.9961C116.816 62.8746 113.577 63.8937 110.998 65.0344C109.797 64.4945 108.42 63.9545 106.922 63.5968C103.621 59.5741 98.5793 56.9958 93.0042 56.9958H60.006C56.7055 56.9958 54.0058 54.296 54.0058 50.9955C54.0058 47.695 56.7055 44.9952 60.006 44.9952H93.0042C105.302 44.9952 115.865 52.4331 120.542 62.9961H120.535Z" fill="url(#paint2_linear_1_4)"/>
<path d="M56.9958 147C53.6818 147 50.9955 144.314 50.9955 141V134.999C50.9955 131.692 48.3024 128.999 44.9952 128.999H32.9946C16.4517 128.999 2.99323 115.541 2.99323 98.9977C2.99323 82.4548 16.4517 68.9963 32.9946 68.9963H65.9928C69.3068 68.9963 71.9931 71.6826 71.9931 74.9966C71.9931 78.3106 69.3068 80.9969 65.9928 80.9969H32.9946C23.0729 80.9969 14.9938 89.076 14.9938 98.9977C14.9938 108.919 23.0729 116.999 32.9946 116.999H44.9952C54.9169 116.999 62.996 125.078 62.996 134.999V141C62.996 144.314 60.3097 147 56.9958 147Z" fill="url(#paint3_linear_1_4)"/>
<path d="M68.9963 56.9958H32.9946C29.6806 56.9958 26.9944 54.3095 26.9944 50.9955C26.9944 47.6815 29.6806 44.9952 32.9946 44.9952H68.9963C78.918 44.9952 86.9972 36.9161 86.9972 26.9944V9.00028C86.9972 5.68629 89.6834 3 92.9974 3C96.3114 3 98.9977 5.68629 98.9977 9.00028V27.0011C98.9977 43.5441 85.5393 57.0025 68.9963 57.0025V56.9958Z" fill="url(#paint4_linear_1_4)"/>
<path d="M142.397 102.852C141.776 102.251 140.811 101.34 140.669 101.097C140.581 100.618 140.865 99.126 141.04 98.2283C141.573 95.4543 142.235 92.0053 140.176 89.0558C138.043 85.9713 134.426 85.5393 131.78 85.2221C130.943 85.1208 129.661 84.9723 129.485 84.9318C129.168 84.5944 128.621 83.339 128.27 82.5088C127.177 80.0047 125.692 76.5692 122.189 75.3813C118.672 74.1934 115.547 76.0495 113.246 77.3994C112.524 77.8179 111.329 78.5333 111.12 78.6143C110.668 78.5333 109.473 77.8246 108.744 77.3994C106.449 76.0428 103.311 74.1867 99.8077 75.3813C96.3047 76.5692 94.8131 79.998 93.7264 82.502C93.3619 83.339 92.822 84.5876 92.7072 84.7766C92.3225 84.9656 91.0604 85.1208 90.2099 85.2221C87.5776 85.5393 83.9532 85.9713 81.8203 89.0423C79.755 92.0053 80.4232 95.4543 80.9496 98.2351C81.1251 99.126 81.4086 100.618 81.3749 100.942C81.1791 101.34 80.2275 102.244 79.593 102.852C77.6492 104.715 74.9899 107.252 74.9899 111.005C74.9899 114.758 77.6492 117.296 79.593 119.152C80.214 119.752 81.1791 120.664 81.3209 120.907C81.4086 121.386 81.1251 122.877 80.9496 123.775C80.4164 126.549 79.755 129.998 81.8136 132.948C83.9464 136.032 87.5641 136.464 90.2099 136.781C91.0469 136.883 92.3293 137.031 92.5047 137.072C92.822 137.409 93.3687 138.664 93.7197 139.495C94.8131 141.999 96.2979 145.434 99.8009 146.622C103.317 147.803 106.442 145.954 108.744 144.604C109.466 144.185 110.661 143.47 110.87 143.389C111.322 143.47 112.517 144.179 113.246 144.604C115.028 145.657 117.323 147.007 119.881 147.007C120.623 147.007 121.392 146.892 122.175 146.629C125.678 145.441 127.17 142.012 128.257 139.508C128.621 138.671 129.161 137.422 129.276 137.234C129.661 137.045 130.923 136.889 131.773 136.788C134.405 136.471 138.03 136.039 140.163 132.968C142.228 130.005 141.56 126.556 141.033 123.775C140.858 122.884 140.574 121.392 140.608 121.069C140.804 120.67 141.756 119.766 142.39 119.158C144.334 117.296 146.993 114.751 146.993 110.998C146.993 107.246 144.334 104.708 142.39 102.852H142.397ZM102.723 110.411C102.022 110.809 101.259 110.998 100.503 110.998C98.937 110.998 97.4116 110.182 96.5882 108.724C95.3598 106.564 96.109 103.817 98.2688 102.588L99.2745 102.015C101.117 100.969 102.811 98.9437 101.569 96.6422C100.395 94.4553 101.205 91.7286 103.392 90.5474C105.578 89.3595 108.312 90.1829 109.493 92.363C112.895 98.6603 110.472 106.017 103.729 109.837L102.723 110.411ZM125.813 123.559C125.105 125.935 122.601 127.298 120.218 126.59L119.104 126.259C117.755 125.861 116.472 125.928 115.5 126.455C114.69 126.907 114.123 127.669 113.833 128.716C113.273 130.7 111.471 131.996 109.5 131.996C109.102 131.996 108.69 131.942 108.285 131.827C105.889 131.152 104.492 128.668 105.167 126.279C106.105 122.925 108.224 120.191 111.133 118.578C114.218 116.87 117.95 116.54 121.649 117.62L122.776 117.957C125.159 118.672 126.522 121.177 125.813 123.559Z" fill="url(#paint5_linear_1_4)"/>
</g>
<defs>
<linearGradient id="paint0_linear_1_4" x1="-60.7083" y1="143.436" x2="60.4785" y2="41.445" gradientUnits="userSpaceOnUse">
<stop offset="0.01" stop-color="#007FA1"/>
<stop offset="1" stop-color="#1BEACD"/>
</linearGradient>
<linearGradient id="paint1_linear_1_4" x1="-37.7803" y1="170.677" x2="83.4065" y2="68.6858" gradientUnits="userSpaceOnUse">
<stop offset="0.01" stop-color="#007FA1"/>
<stop offset="1" stop-color="#1BEACD"/>
</linearGradient>
<linearGradient id="paint2_linear_1_4" x1="-42.6264" y1="164.927" x2="78.5671" y2="62.9286" gradientUnits="userSpaceOnUse">
<stop offset="0.01" stop-color="#007FA1"/>
<stop offset="1" stop-color="#1BEACD"/>
</linearGradient>
<linearGradient id="paint3_linear_1_4" x1="-36.1537" y1="172.614" x2="85.0398" y2="70.623" gradientUnits="userSpaceOnUse">
<stop offset="0.01" stop-color="#007FA1"/>
<stop offset="1" stop-color="#1BEACD"/>
</linearGradient>
<linearGradient id="paint4_linear_1_4" x1="-58.1232" y1="146.507" x2="63.0703" y2="44.516" gradientUnits="userSpaceOnUse">
<stop offset="0.01" stop-color="#007FA1"/>
<stop offset="1" stop-color="#1BEACD"/>
</linearGradient>
<linearGradient id="paint5_linear_1_4" x1="-5.49759" y1="209.041" x2="115.696" y2="107.05" gradientUnits="userSpaceOnUse">
<stop offset="0.01" stop-color="#007FA1"/>
<stop offset="1" stop-color="#1BEACD"/>
</linearGradient>
<clipPath id="clip0_1_4">
<rect width="144" height="144" fill="white" transform="translate(3 3)"/>
</clipPath>
</defs>
</svg>
