<svg width="150" height="150" viewBox="0 0 150 150" fill="none" xmlns="http://www.w3.org/2000/svg">
<g clip-path="url(#clip0_1_17)">
<path d="M135.081 37.1445C138.334 32.2999 137.814 25.6609 133.54 21.3808C129.577 17.4177 123.597 16.6821 118.886 19.1741C105.754 8.83196 89.4513 3.47383 72.6096 4.03818C54.5569 4.64057 37.5757 12.0151 24.7986 24.7922C12.0152 37.5756 4.64697 54.5568 4.03824 72.6096C3.47389 89.4576 8.83202 105.76 19.1742 118.886C16.6822 123.597 17.4177 129.577 21.3808 133.54C23.8158 135.975 27.0053 137.186 30.2011 137.186C32.6234 137.186 35.052 136.482 37.1445 135.081C48.4505 142.215 61.6271 145.994 75.0256 145.994C76.9913 145.994 78.9633 145.911 80.929 145.746C97.6185 144.358 113.344 137.059 125.202 125.195C137.066 113.331 144.371 97.5931 145.753 80.8909C147.027 65.5013 143.248 50.0927 135.081 37.1381V37.1445ZM137.465 80.2124C136.241 94.9552 129.799 108.842 119.324 119.317C108.855 129.786 94.9743 136.229 80.2442 137.459C66.852 138.575 53.4535 135.36 42.1222 128.379C43.4221 124.111 42.3885 119.279 39.0151 115.912C35.3247 112.222 29.8714 111.328 25.3313 113.249C16.4539 101.746 11.863 87.5553 12.3576 72.8949C12.8903 56.96 19.3961 41.9699 30.6831 30.6893C41.9637 19.4087 56.9538 12.9029 72.8886 12.3639C87.549 11.8693 101.746 16.4602 113.243 25.3375C111.328 29.8777 112.215 35.3246 115.906 39.0214C118.341 41.4563 121.53 42.6674 124.726 42.6674C125.956 42.6674 127.186 42.4836 128.379 42.1221C135.36 53.4471 138.575 66.8329 137.465 80.2188V80.2124Z" fill="url(#paint0_linear_1_17)"/>
<path d="M51.6526 34.3923C49.6932 33.1051 47.347 32.3569 44.8297 32.3569C37.956 32.3569 32.3633 37.9496 32.3633 44.8296C32.3633 47.347 33.1115 49.6868 34.3987 51.6525C23.9298 69.8194 26.8657 93.0908 41.8875 108.119C50.9297 117.161 62.9522 121.822 75.0571 121.822C83.0658 121.822 91.1125 119.78 98.3476 115.614C100.307 116.901 102.653 117.649 105.17 117.649C112.044 117.649 117.637 112.057 117.637 105.177C117.637 102.659 116.889 100.32 115.601 98.3538C126.07 80.1869 123.134 56.9155 108.113 41.8874C93.0909 26.8592 69.8131 23.9297 51.6462 34.3923H51.6526ZM108.912 93.2747C107.732 92.9006 106.477 92.704 105.17 92.704C98.2968 92.704 92.7041 98.2968 92.7041 105.177C92.7041 106.477 92.907 107.732 93.2748 108.912C78.4813 116.901 59.8705 114.339 47.7655 102.235C35.6606 90.1296 33.0988 71.5251 41.0821 56.7316C42.2616 57.1057 43.5171 57.3023 44.8233 57.3023C51.697 57.3023 57.2897 51.7096 57.2897 44.8296C57.2897 43.5297 57.0868 42.2742 56.719 41.0947C71.5125 33.1051 90.1233 35.6669 102.228 47.7718C114.333 59.8767 116.895 78.4812 108.912 93.2747Z" fill="url(#paint1_linear_1_17)"/>
<path d="M88.5634 70.8403H79.1597V61.4303C79.1597 59.1348 77.2955 57.2706 75 57.2706C72.7046 57.2706 70.8403 59.1348 70.8403 61.4303V70.8403H61.4367C59.1412 70.8403 57.277 72.7046 57.277 75C57.277 77.2954 59.1412 79.1597 61.4367 79.1597H70.8403V88.5697C70.8403 90.8651 72.7046 92.7294 75 92.7294C77.2955 92.7294 79.1597 90.8651 79.1597 88.5697V79.1597H88.5634C90.8588 79.1597 92.7231 77.2954 92.7231 75C92.7231 72.7046 90.8588 70.8403 88.5634 70.8403Z" fill="url(#paint2_linear_1_17)"/>
</g>
<defs>
<linearGradient id="paint0_linear_1_17" x1="75.0002" y1="208.421" x2="75.0002" y2="10.7533" gradientUnits="userSpaceOnUse">
<stop offset="0.01" stop-color="#007FA1"/>
<stop offset="1" stop-color="#1BEACD"/>
</linearGradient>
<linearGradient id="paint1_linear_1_17" x1="75.0001" y1="208.421" x2="75.0001" y2="10.7531" gradientUnits="userSpaceOnUse">
<stop offset="0.01" stop-color="#007FA1"/>
<stop offset="1" stop-color="#1BEACD"/>
</linearGradient>
<linearGradient id="paint2_linear_1_17" x1="75" y1="208.421" x2="75" y2="10.7532" gradientUnits="userSpaceOnUse">
<stop offset="0.01" stop-color="#007FA1"/>
<stop offset="1" stop-color="#1BEACD"/>
</linearGradient>
<clipPath id="clip0_1_17">
<rect width="142" height="142" fill="white" transform="translate(4 4)"/>
</clipPath>
</defs>
</svg>
