<svg width="150" height="150" viewBox="0 0 150 150" fill="none" xmlns="http://www.w3.org/2000/svg">
<g clip-path="url(#clip0_1_16)">
<path d="M140.053 66.6374C142.641 64.0055 144.048 60.5077 144 56.8054C143.905 49.3325 137.649 43.2575 130.047 43.2575H126.379V34.7005H130.047C130.441 34.7005 130.828 34.7073 131.216 34.7278C132.71 24.3981 124.07 14.9343 113.67 15.5752L110.395 15.7388L109.397 12.6024C107.386 6.25461 101.578 2 94.9414 2H94.887C86.5793 2.02727 79.8135 8.94783 79.766 17.4366C79.766 17.4639 79.766 17.498 79.766 17.5252V37.9801H68.938C61.8937 38.2733 61.9005 48.3439 68.938 48.6371H79.766V70.7215H93.2499V68.4101C94.0107 49.9871 120.157 50.0076 120.911 68.4101V70.7215H130.326C130.367 70.7215 130.407 70.7215 130.448 70.7215C134.089 70.6874 137.499 69.242 140.067 66.6374H140.053Z" fill="url(#paint0_linear_1_16)"/>
<path d="M68.938 57.1872C50.5835 56.4236 50.6039 30.18 68.938 29.4232H71.2408V17.5184C71.2408 8.99556 64.4547 2.02727 56.113 2H56.0586C49.4219 2 43.614 6.25461 41.5965 12.6024L40.5979 15.7388L37.3237 15.5752C26.9305 14.9343 18.2899 24.3981 19.7843 34.7278C20.1715 34.7073 20.5587 34.7005 20.9527 34.7005H24.6209V43.2575H20.9527C13.3582 43.2506 7.09511 49.3326 7.00001 56.8054C6.95246 60.5077 8.35181 64.0055 10.9467 66.6374C13.5416 69.2692 16.9992 70.7215 20.6878 70.7215H38.6211V81.5899C38.9132 88.6604 48.9464 88.6536 49.2385 81.5899V70.7215H71.2408V57.1872H68.938Z" fill="url(#paint1_linear_1_16)"/>
<path d="M82.062 92.8059C100.417 93.5696 100.396 119.813 82.062 120.57H79.7592V132.475C79.7592 132.475 79.7592 132.536 79.7592 132.563C79.8068 141.052 86.5725 147.973 94.8803 148C101.551 148.034 107.379 143.766 109.397 137.398L110.395 134.261L113.67 134.425C124.063 135.066 132.71 125.602 131.216 115.272C130.829 115.293 130.441 115.299 130.047 115.299H126.379V106.743H130.047C137.642 106.743 143.898 100.661 144 93.1946C144.048 89.4923 142.648 85.9945 140.053 83.3626C137.458 80.7308 134.001 79.2785 130.312 79.2785H112.379V68.4101C112.087 61.3396 102.054 61.3464 101.762 68.4101V79.2785H79.7592V92.8128H82.062V92.8059Z" fill="url(#paint2_linear_1_16)"/>
<path d="M87.374 106.688C87.374 103.749 84.9965 101.363 82.0688 101.363H71.2408V79.2785H57.7568V81.5899C56.996 100.013 30.85 99.9924 30.096 81.5899V79.2785H20.681C16.9924 79.2785 13.5348 80.7308 10.9399 83.3626C2.36041 92.0491 8.73219 106.763 20.9459 106.743H24.6141V115.299H20.9459C20.5519 115.299 20.1647 115.293 19.7775 115.272C18.2831 125.609 26.9305 135.066 37.3237 134.425L40.5979 134.261L41.5964 137.398C43.6139 143.745 49.4219 148 56.0586 148H56.1129C64.4547 147.973 71.234 141.004 71.234 132.475V112.02H82.062C84.9897 112.02 87.3673 109.627 87.3673 106.695L87.374 106.688Z" fill="url(#paint3_linear_1_16)"/>
</g>
<defs>
<linearGradient id="paint0_linear_1_16" x1="199.002" y1="67.3396" x2="69.1129" y2="31.2282" gradientUnits="userSpaceOnUse">
<stop offset="0.01" stop-color="#007FA1"/>
<stop offset="1" stop-color="#1BEACD"/>
</linearGradient>
<linearGradient id="paint1_linear_1_16" x1="194.186" y1="84.6581" x2="64.2967" y2="48.5399" gradientUnits="userSpaceOnUse">
<stop offset="0.01" stop-color="#007FA1"/>
<stop offset="1" stop-color="#1BEACD"/>
</linearGradient>
<linearGradient id="paint2_linear_1_16" x1="182.013" y1="128.425" x2="52.1238" y2="92.3133" gradientUnits="userSpaceOnUse">
<stop offset="0.01" stop-color="#007FA1"/>
<stop offset="1" stop-color="#1BEACD"/>
</linearGradient>
<linearGradient id="paint3_linear_1_16" x1="177.204" y1="145.743" x2="47.3143" y2="109.625" gradientUnits="userSpaceOnUse">
<stop offset="0.01" stop-color="#007FA1"/>
<stop offset="1" stop-color="#1BEACD"/>
</linearGradient>
<clipPath id="clip0_1_16">
<rect width="137" height="146" fill="white" transform="translate(7 2)"/>
</clipPath>
</defs>
</svg>
