<svg width="150" height="150" viewBox="0 0 150 150" fill="none" xmlns="http://www.w3.org/2000/svg">
<g clip-path="url(#clip0_1_14)">
<path d="M145.312 140.986L136.139 131.832H142.462C143.753 131.832 144.801 130.786 144.801 129.498C144.801 128.21 143.753 127.164 142.462 127.164H130.497C129.207 127.164 128.158 128.21 128.158 129.498V141.437C128.158 142.725 129.207 143.771 130.497 143.771C131.788 143.771 132.837 142.725 132.837 141.437V135.127L142.01 144.281C142.468 144.738 143.065 144.961 143.661 144.961C144.257 144.961 144.86 144.732 145.312 144.281C146.223 143.372 146.223 141.894 145.312 140.986Z" fill="url(#paint0_linear_1_14)"/>
<path d="M19.5026 127.171H7.5382C6.24742 127.171 5.19906 128.217 5.19906 129.505C5.19906 130.793 6.24742 131.839 7.5382 131.839H13.8611L4.68798 140.992C3.77722 141.901 3.77722 143.379 4.68798 144.287C5.14664 144.745 5.74289 144.967 6.33915 144.967C6.9354 144.967 7.53821 144.738 7.99031 144.287L17.1634 135.134V141.443C17.1634 142.731 18.2118 143.777 19.5026 143.777C20.7934 143.777 21.8417 142.731 21.8417 141.443V129.505C21.8417 128.217 20.7934 127.171 19.5026 127.171Z" fill="url(#paint1_linear_1_14)"/>
<path d="M116.331 98.4162C116.829 97.2262 118.199 96.6639 119.391 97.1608C120.158 97.4812 120.663 98.1677 120.794 98.9327C121.586 91.7473 121.75 84.4377 121.75 78.2135C121.75 51.0543 80.5628 38.7104 75.1835 37.2197C72.6478 37.9193 62.1707 41.0248 51.851 46.9353C45.0301 50.845 39.6179 55.1863 35.7587 59.8545C31.0738 65.5296 28.6954 71.7081 28.6954 78.22C28.6954 84.1893 28.8461 91.1589 29.5603 98.0566C29.8027 97.6708 30.1696 97.357 30.6217 97.1674C31.8142 96.6705 33.1837 97.2328 33.6816 98.4227C33.852 98.828 34.0223 99.2334 34.1861 99.6257C34.6907 100.809 34.1337 102.182 32.9412 102.679C32.6464 102.803 32.3384 102.862 32.037 102.862C31.1983 102.862 30.399 102.404 29.9862 101.639C31.1787 110.531 33.4326 118.991 37.6457 124.653C41.8654 130.322 47.9851 135.5 54.8781 139.233C57.5645 140.691 60.3033 141.888 63.0094 142.81C62.9832 142.797 62.9636 142.784 62.9373 142.764C61.8562 142.058 61.5614 140.613 62.2625 139.534C62.9701 138.455 64.4181 138.161 65.4993 138.861C65.8531 139.096 66.2135 139.325 66.5673 139.547C67.6615 140.234 67.9891 141.672 67.3011 142.764C66.9997 143.241 66.5542 143.568 66.0562 143.732C69.1947 144.562 72.2481 145 75.0917 145C75.1376 145 75.1835 145 75.2293 145C75.2752 145 75.3211 145 75.3669 145C78.1385 145 81.1198 144.588 84.1731 143.79C83.59 143.653 83.0592 143.307 82.7185 142.764C82.0305 141.672 82.3647 140.234 83.4524 139.547C83.8062 139.325 84.16 139.096 84.5204 138.861C85.6015 138.155 87.0496 138.455 87.7572 139.534C88.4648 140.613 88.1634 142.058 87.0823 142.764C86.8989 142.882 86.7219 142.999 86.5385 143.117C89.5394 142.162 92.5862 140.861 95.5806 139.24C102.474 135.507 108.593 130.329 112.813 124.66C117.249 118.697 119.516 109.636 120.656 100.221C120.479 100.633 120.309 101.038 120.145 101.437C119.765 102.326 118.9 102.862 117.989 102.862C117.688 102.862 117.38 102.803 117.078 102.679C115.892 102.176 115.329 100.809 115.834 99.6257C115.997 99.2269 116.168 98.828 116.338 98.4227L116.331 98.4162ZM66.4493 98.5338C67.4256 97.697 68.9064 97.8081 69.7451 98.7823C71.2325 100.515 73.2047 101.509 75.1376 101.509C77.0705 101.509 78.9182 100.567 80.3925 98.9327C81.2574 97.9781 82.7316 97.8996 83.6948 98.7561C84.6514 99.6192 84.7301 101.09 83.8717 102.051C81.5129 104.667 78.3351 106.17 75.1376 106.17C71.9401 106.17 68.5788 104.582 66.2004 101.816C65.3617 100.842 65.4731 99.3642 66.4493 98.5273V98.5338ZM38.9365 115.127C38.5892 115.311 38.2158 115.396 37.8554 115.396C37.0167 115.396 36.2042 114.944 35.7849 114.147C35.3655 113.349 34.9331 112.506 34.5007 111.636C33.9306 110.479 34.4024 109.08 35.5621 108.511C36.7219 107.942 38.124 108.419 38.6941 109.57C39.1069 110.407 39.5197 111.211 39.9193 111.976C40.5222 113.114 40.0832 114.526 38.9365 115.127ZM46.8975 126.393C46.4585 126.765 45.9212 126.948 45.3839 126.948C44.7221 126.948 44.0604 126.667 43.6017 126.125C43.2544 125.719 42.9399 125.333 42.6582 124.967C42.3633 124.588 42.0816 124.215 41.7933 123.83C41.0267 122.79 41.2429 121.332 42.2847 120.567C43.32 119.802 44.7877 120.025 45.5543 121.058C45.8164 121.411 46.085 121.764 46.3536 122.117C46.5961 122.424 46.8647 122.757 47.1661 123.11C48.0048 124.091 47.8803 125.562 46.8975 126.399V126.393ZM41.3215 71.7931C41.3215 71.7342 41.3215 71.6754 41.3215 71.6165C40.4894 72.1069 40.0569 72.4861 40.0504 72.4926C39.1003 73.3622 37.6195 73.3034 36.7481 72.3553C35.8766 71.4073 35.9356 69.9297 36.8857 69.0602C37.0822 68.8771 41.8588 64.5881 50.6191 64.5881C59.3795 64.5881 64.1495 68.8771 64.3526 69.0602C65.3027 69.9297 65.3682 71.4073 64.4902 72.3553C64.0316 72.8588 63.4026 73.1072 62.767 73.1072C62.1969 73.1072 61.6334 72.9045 61.1813 72.4861C61.1355 72.4469 60.7096 72.0742 59.9102 71.5969C59.9102 71.6623 59.9102 71.7277 59.9102 71.7865C59.9102 76.9059 55.7364 81.0706 50.6126 81.0706C45.4887 81.0706 41.3084 76.9059 41.3084 71.7865L41.3215 71.7931ZM57.1452 135.677C56.6865 136.232 56.0182 136.514 55.3499 136.514C54.8191 136.514 54.2884 136.337 53.8559 135.971C53.1286 135.369 52.4079 134.755 51.7068 134.14C50.7371 133.29 50.6388 131.819 51.4906 130.852C52.3424 129.884 53.8166 129.786 54.7864 130.636C55.4612 131.224 56.1492 131.819 56.8438 132.395C57.8397 133.218 57.9708 134.689 57.1386 135.677H57.1452ZM90.7516 120.358C89.8605 121.398 81.834 130.538 75.0459 130.538C68.2578 130.538 60.2313 121.398 59.3402 120.358C58.8684 119.802 58.6784 119.063 58.8291 118.351C58.9798 117.638 59.4581 117.037 60.1199 116.729C61.1551 116.246 70.3807 111.976 75.0459 111.976C79.7111 111.976 88.9301 116.239 89.9719 116.729C90.6271 117.037 91.1054 117.638 91.2626 118.351C91.4199 119.063 91.2299 119.802 90.7516 120.358ZM98.3063 134.134C97.6052 134.748 96.8779 135.369 96.1572 135.964C95.7182 136.33 95.1874 136.507 94.6567 136.507C93.9884 136.507 93.3266 136.219 92.8614 135.67C92.0358 134.683 92.1669 133.212 93.1562 132.388C93.8508 131.806 94.5388 131.218 95.2136 130.629C96.1834 129.779 97.6576 129.877 98.5094 130.845C99.3612 131.813 99.2629 133.29 98.2932 134.134H98.3063ZM108.213 123.823C107.932 124.202 107.643 124.582 107.348 124.961C107.067 125.327 106.752 125.713 106.405 126.118C105.946 126.661 105.284 126.942 104.623 126.942C104.085 126.942 103.548 126.759 103.109 126.386C102.126 125.549 102.002 124.078 102.84 123.097C103.135 122.744 103.41 122.417 103.646 122.104C103.915 121.751 104.184 121.404 104.452 121.044C105.219 120.011 106.68 119.789 107.722 120.554C108.757 121.319 108.98 122.777 108.207 123.817L108.213 123.823ZM99.466 81.0772C94.3356 81.0772 90.1619 76.9124 90.1619 71.7931C90.1619 71.7342 90.1619 71.6688 90.1684 71.6035C89.3625 72.0873 88.93 72.46 88.8776 72.5057C88.4321 72.9111 87.8686 73.1203 87.3051 73.1203C86.6695 73.1203 86.0405 72.8653 85.5819 72.3619C84.7104 71.4139 84.7759 69.9363 85.726 69.0602C85.9226 68.8771 90.6992 64.5881 99.4595 64.5881C108.22 64.5881 112.996 68.8771 113.193 69.0602C114.143 69.9297 114.202 71.4073 113.331 72.3553C112.459 73.2968 110.991 73.3622 110.041 72.5057C109.982 72.4534 109.55 72.0807 108.751 71.61C108.751 71.6688 108.757 71.7342 108.757 71.7996C108.757 76.9189 104.583 81.0837 99.4529 81.0837L99.466 81.0772ZM115.512 111.63C115.08 112.499 114.654 113.343 114.228 114.14C113.809 114.938 112.996 115.389 112.158 115.389C111.791 115.389 111.417 115.304 111.07 115.121C109.93 114.519 109.491 113.107 110.087 111.97C110.493 111.205 110.9 110.394 111.312 109.564C111.883 108.406 113.285 107.936 114.444 108.504C115.604 109.073 116.082 110.472 115.506 111.63H115.512Z" fill="url(#paint2_linear_1_14)"/>
<path d="M85.0183 119.652C81.9781 122.646 77.8043 125.876 75.0524 125.876C72.3005 125.876 68.1201 122.64 65.0799 119.652C68.6115 118.187 72.9688 116.651 75.0524 116.651C77.136 116.651 81.4932 118.187 85.0183 119.652Z" fill="url(#paint3_linear_1_14)"/>
<path d="M104.105 71.7996C104.105 74.3429 102.028 76.4155 99.4791 76.4155C96.9303 76.4155 94.8533 74.3429 94.8533 71.7996C94.8533 71.0477 95.0367 70.3155 95.384 69.6616C96.5896 69.4197 97.9525 69.2563 99.4857 69.2563C101.019 69.2563 102.382 69.4132 103.587 69.6616C103.935 70.3155 104.118 71.0477 104.118 71.7996H104.105Z" fill="url(#paint4_linear_1_14)"/>
<path d="M55.2516 71.7996C55.2516 74.3429 53.1745 76.4155 50.6257 76.4155C48.0769 76.4155 45.9998 74.3429 45.9998 71.7996C45.9998 71.0477 46.1833 70.322 46.524 69.6682C47.7296 69.4197 49.099 69.2628 50.6257 69.2628C52.1524 69.2628 53.5218 69.4197 54.7208 69.6682C55.0681 70.322 55.2516 71.0543 55.2516 71.8061V71.7996Z" fill="url(#paint5_linear_1_14)"/>
<path d="M127.778 72.0481C127.444 74.2841 126.966 76.3763 126.428 78.2723V78.22C126.428 70.577 123.677 63.3851 118.251 56.847C114.012 51.7408 108.141 47.0268 100.803 42.8424C95.1285 39.6061 89.5001 37.2001 85.0184 35.5329C88.4124 35.0752 92.5076 34.6306 96.9041 34.3822C107.329 33.7937 116.856 36.3436 116.947 36.3697C117.046 36.3959 117.137 36.4155 117.236 36.422C126.18 46.9745 129.731 58.9523 127.785 72.0546L127.778 72.0481Z" fill="url(#paint6_linear_1_14)"/>
<path d="M111.306 30.492C107.388 29.897 102.172 29.4067 96.6355 29.7205C84.6514 30.3939 75.0983 32.4403 74.6986 32.5253C74.6855 32.5253 74.6724 32.5319 74.6527 32.5384C74.6396 32.5384 74.6265 32.5384 74.62 32.5384C74.1089 32.6692 61.9676 35.7878 49.6232 42.8359C42.2913 47.0268 36.4336 51.7342 32.2008 56.8405C26.7821 63.3851 24.0367 70.5704 24.0367 78.2135V78.3638C23.4798 76.4416 22.9884 74.3168 22.6477 72.035C20.623 58.6188 24.3774 46.3795 33.8127 35.644C42.4747 25.7911 53.1876 21.391 60.6572 19.4426C68.8343 17.3047 75.0262 17.5335 75.0852 17.54C75.1507 17.54 75.2228 17.54 75.2948 17.54C75.3538 17.54 81.5522 17.3047 89.7294 19.4426C95.7378 21.0118 103.856 24.1697 111.312 30.4854L111.306 30.492Z" fill="url(#paint7_linear_1_14)"/>
<path d="M132.62 71.0346C133.787 60.8483 132.299 46.4711 120.086 32.5711C110.598 21.7702 98.8894 16.9908 90.745 14.8856C82.4171 12.728 76.1073 12.8457 75.19 12.8719C74.2792 12.8457 67.9694 12.728 59.6415 14.8856C44.8794 18.7038 35.5359 26.6084 30.3006 32.5711C17.7269 46.883 16.5344 61.6917 17.9104 71.9238C17.36 70.2305 16.8751 68.4783 16.4754 66.6672C13.1469 51.61 16.8161 37.9323 27.3783 26.0134C45.7836 5.24191 73.932 5 75.1179 5C76.3039 5 104.452 5.24191 122.871 26.0199C136.755 41.6852 136.552 58.1612 132.62 71.0346Z" fill="url(#paint8_linear_1_14)"/>
</g>
<defs>
<linearGradient id="paint0_linear_1_14" x1="205.802" y1="79.1484" x2="116.849" y2="153.139" gradientUnits="userSpaceOnUse">
<stop offset="0.01" stop-color="#007FA1"/>
<stop offset="1" stop-color="#1BEACD"/>
</linearGradient>
<linearGradient id="paint1_linear_1_14" x1="155.101" y1="18.2004" x2="66.1479" y2="92.1978" gradientUnits="userSpaceOnUse">
<stop offset="0.01" stop-color="#007FA1"/>
<stop offset="1" stop-color="#1BEACD"/>
</linearGradient>
<linearGradient id="paint2_linear_1_14" x1="158.777" y1="22.6201" x2="69.8237" y2="96.6176" gradientUnits="userSpaceOnUse">
<stop offset="0.01" stop-color="#007FA1"/>
<stop offset="1" stop-color="#1BEACD"/>
</linearGradient>
<linearGradient id="paint3_linear_1_14" x1="172.464" y1="39.07" x2="83.5113" y2="113.067" gradientUnits="userSpaceOnUse">
<stop offset="0.01" stop-color="#007FA1"/>
<stop offset="1" stop-color="#1BEACD"/>
</linearGradient>
<linearGradient id="paint4_linear_1_14" x1="158.921" y1="22.7901" x2="69.9678" y2="96.7875" gradientUnits="userSpaceOnUse">
<stop offset="0.01" stop-color="#007FA1"/>
<stop offset="1" stop-color="#1BEACD"/>
</linearGradient>
<linearGradient id="paint5_linear_1_14" x1="138.996" y1="-1.15889" x2="50.0425" y2="72.8386" gradientUnits="userSpaceOnUse">
<stop offset="0.01" stop-color="#007FA1"/>
<stop offset="1" stop-color="#1BEACD"/>
</linearGradient>
<linearGradient id="paint6_linear_1_14" x1="154.02" y1="16.8928" x2="65.0668" y2="90.8902" gradientUnits="userSpaceOnUse">
<stop offset="0.01" stop-color="#007FA1"/>
<stop offset="1" stop-color="#1BEACD"/>
</linearGradient>
<linearGradient id="paint7_linear_1_14" x1="128.551" y1="-13.7185" x2="39.5983" y2="60.2789" gradientUnits="userSpaceOnUse">
<stop offset="0.01" stop-color="#007FA1"/>
<stop offset="1" stop-color="#1BEACD"/>
</linearGradient>
<linearGradient id="paint8_linear_1_14" x1="139.192" y1="-0.930039" x2="50.2391" y2="73.0674" gradientUnits="userSpaceOnUse">
<stop offset="0.01" stop-color="#007FA1"/>
<stop offset="1" stop-color="#1BEACD"/>
</linearGradient>
<clipPath id="clip0_1_14">
<rect width="142" height="140" fill="white" transform="translate(4 5)"/>
</clipPath>
</defs>
</svg>
