<svg width="150" height="150" viewBox="0 0 150 150" fill="none" xmlns="http://www.w3.org/2000/svg">
<g clip-path="url(#clip0_1_18)">
<path d="M67.5521 50.2694L78.8862 61.3215L76.2129 76.927C75.9944 78.1947 76.8466 79.3895 78.1068 79.6081C78.6094 79.6955 79.1265 79.6081 79.5782 79.3749L93.5928 72.0093L107.607 79.3749C108.744 79.9724 110.15 79.5352 110.747 78.3987C110.987 77.947 111.067 77.4297 110.98 76.927L108.307 61.3215L119.641 50.2694C120.559 49.3733 120.573 47.9016 119.677 46.9836C119.32 46.6193 118.854 46.3789 118.352 46.3061L102.683 44.0257L95.6834 29.8263C95.1152 28.6752 93.7239 28.2016 92.573 28.7699C92.1141 28.9957 91.7426 29.3673 91.5168 29.8263L84.5095 44.0257L68.8414 46.3061C67.5739 46.4882 66.6926 47.6685 66.8747 48.9361C66.9475 49.4388 67.1879 49.9124 67.5521 50.2694Z" fill="url(#paint0_linear_1_18)"/>
<path d="M128.433 65.7001H126.109C124.827 65.7001 123.786 66.7419 123.786 68.0241C123.786 69.3064 124.827 70.3482 126.109 70.3482H128.433V72.6723C128.433 73.9545 129.474 74.9964 130.756 74.9964C132.038 74.9964 133.08 73.9545 133.08 72.6723V70.3482H135.404C136.686 70.3482 137.727 69.3064 137.727 68.0241C137.727 66.7419 136.686 65.7001 135.404 65.7001H133.08V63.376C133.08 62.0937 132.038 61.0519 130.756 61.0519C129.474 61.0519 128.433 62.0937 128.433 63.376V65.7001Z" fill="url(#paint1_linear_1_18)"/>
<path d="M65.7237 26.2127C65.7237 24.9304 64.6821 23.8886 63.4001 23.8886C62.1181 23.8886 61.0765 24.9304 61.0765 26.2127V28.5367H58.7528C57.4708 28.5367 56.4292 29.5786 56.4292 30.8608C56.4292 32.143 57.4708 33.1849 58.7528 33.1849H61.0765V35.509C61.0765 36.7912 62.1181 37.833 63.4001 37.833C64.6821 37.833 65.7237 36.7912 65.7237 35.509V33.1849H68.0474C69.3294 33.1849 70.371 32.143 70.371 30.8608C70.371 29.5786 69.3294 28.5367 68.0474 28.5367H65.7237V26.2127Z" fill="url(#paint2_linear_1_18)"/>
<path d="M116.822 16.9236H119.146V19.2477C119.146 20.53 120.187 21.5718 121.469 21.5718C122.751 21.5718 123.793 20.53 123.793 19.2477V16.9236H126.116C127.398 16.9236 128.44 15.8818 128.44 14.5996C128.44 13.3173 127.398 12.2755 126.116 12.2755H123.793V9.95142C123.793 8.66918 122.751 7.62735 121.469 7.62735C120.187 7.62735 119.146 8.66918 119.146 9.95142V12.2755H116.822C115.54 12.2755 114.498 13.3173 114.498 14.5996C114.498 15.8818 115.54 16.9236 116.822 16.9236Z" fill="url(#paint3_linear_1_18)"/>
<path d="M142.921 84.7516C123.152 107.883 88.3847 110.601 65.2576 90.835C42.1305 71.0621 39.4135 36.2884 59.1753 13.157C61.0401 10.9713 63.0723 8.93865 65.2576 7.07356C66.2336 6.23573 66.3429 4.77134 65.5052 3.79509C64.9735 3.17582 64.1577 2.8844 63.3564 3.01554C23.891 9.72548 -2.66686 47.1657 4.03453 86.6458C10.7432 126.126 48.1763 152.689 87.6417 145.979C118.016 140.821 141.806 117.019 146.964 86.6458C147.168 85.3781 146.308 84.1906 145.041 83.9866C144.247 83.8554 143.445 84.1469 142.921 84.7588V84.7516Z" fill="url(#paint4_linear_1_18)"/>
</g>
<defs>
<linearGradient id="paint0_linear_1_18" x1="147.575" y1="-6.42638" x2="28.7306" y2="134.14" gradientUnits="userSpaceOnUse">
<stop offset="0.01" stop-color="#007FA1"/>
<stop offset="1" stop-color="#1BEACD"/>
</linearGradient>
<linearGradient id="paint1_linear_1_18" x1="174.468" y1="16.3044" x2="55.6237" y2="156.87" gradientUnits="userSpaceOnUse">
<stop offset="0.01" stop-color="#007FA1"/>
<stop offset="1" stop-color="#1BEACD"/>
</linearGradient>
<linearGradient id="paint2_linear_1_18" x1="116.866" y1="-32.3992" x2="-1.97925" y2="108.167" gradientUnits="userSpaceOnUse">
<stop offset="0.01" stop-color="#007FA1"/>
<stop offset="1" stop-color="#1BEACD"/>
</linearGradient>
<linearGradient id="paint3_linear_1_18" x1="142.71" y1="-10.5427" x2="23.8649" y2="130.023" gradientUnits="userSpaceOnUse">
<stop offset="0.01" stop-color="#007FA1"/>
<stop offset="1" stop-color="#1BEACD"/>
</linearGradient>
<linearGradient id="paint4_linear_1_18" x1="145.434" y1="-8.24056" x2="26.5891" y2="132.326" gradientUnits="userSpaceOnUse">
<stop offset="0.01" stop-color="#007FA1"/>
<stop offset="1" stop-color="#1BEACD"/>
</linearGradient>
<clipPath id="clip0_1_18">
<rect width="144" height="146" fill="white" transform="translate(3 2)"/>
</clipPath>
</defs>
</svg>
